<svg width="358" height="146" viewBox="0 0 358 146" fill="none" xmlns="http://www.w3.org/2000/svg">
<path d="M155.162 69.85V80.74L168.472 82.61V96.58C164.952 98.01 160.662 98.56 155.932 98.56C141.632 98.56 135.692 88.33 135.692 72.6C135.692 57.09 141.962 46.64 157.472 46.64C165.392 46.64 172.872 48.51 178.482 50.82L182.882 38.94C177.052 36.3 167.592 33.55 157.472 33.55C131.512 33.55 119.742 51.59 119.742 72.6C119.742 95.59 131.512 111.65 155.272 111.65C165.832 111.65 176.832 108.79 183.762 105.16V69.85H155.162ZM293.612 35.2H277.112L264.572 93.5H264.352L248.842 35.2H231.022L215.512 93.5H215.292L202.642 35.2H186.252V36.3L206.602 110H224.862L239.932 52.03H240.042L255.112 110H273.262L293.612 36.3V35.2ZM293.917 104.5C300.077 108.02 310.087 111.65 319.327 111.65C336.597 111.65 347.267 102.74 347.267 88C347.267 76.67 340.557 70.62 326.477 66.22L318.667 63.69C312.617 61.82 310.967 58.96 310.967 55.11C310.967 49.83 314.267 46.42 322.517 46.42C327.247 46.42 334.617 48.51 340.007 51.15L344.627 38.94C337.697 35.42 328.567 33.55 322.517 33.55C304.697 33.55 295.347 42.79 295.347 56.43C295.347 66 301.177 73.37 313.057 77.22L321.087 79.86C328.897 82.5 331.647 84.48 331.647 89.32C331.647 95.59 327.577 98.78 319.327 98.78C312.507 98.78 303.267 95.37 298.647 92.51L293.917 104.5Z" fill="white"/>
<rect x="0.539246" y="21" width="51.5632" height="52.3289" fill="white"/>
<rect x="57.2077" y="32.4868" width="40.3316" height="40.8421" fill="white"/>
<rect x="7.17609" y="78.6895" width="44.9263" height="45.6921" fill="#4BABE8"/>
<rect x="57.2077" y="78.6895" width="34.2053" height="34.9711" fill="white"/>
</svg>
